<svg xmlns="http://www.w3.org/2000/svg" width="1024" height="1024" viewBox="0 0 1024 1024" role="img" aria-label="Wickelfinder Icon einfarbig">
  <title>Wickelfinder – Monochrome</title>
  <desc>Einfarbige Silhouette (Pin mit ausgestanzter Windel + Nadel) für Android-13-Themed-Icons und Wasserzeichen. currentColor, transparenter Hintergrund.</desc>
  <defs>
    <!-- Maske: weiß = sichtbar, schwarz = ausgestanzt. Windel + Nadel werden aus dem Pin gestanzt. -->
    <mask id="knockout" maskUnits="userSpaceOnUse" x="0" y="0" width="1024" height="1024">
      <g transform="translate(512,512) scale(1.30) translate(-256,-257)">
        <!-- Pin voll sichtbar -->
        <path fill="#fff" d="M256 40 C 154 40 72 122 72 224 C 72 312 140 372 232 462 C 244 474 268 474 280 462 C 372 372 440 312 440 224 C 440 122 358 40 256 40 Z"/>
        <!-- Windel-Dreieck ausstanzen -->
        <path fill="#000" d="M158 158 Q 152 156 152 168 L 250 312 Q 256 320 262 312 L 360 168 Q 360 156 354 158 L 256 176 Q 256 176 158 158 Z"/>
        <!-- oberes Band ausstanzen -->
        <path fill="#000" d="M150 150 Q 256 132 362 150 L 358 176 Q 256 158 154 176 Z"/>
        <!-- Sicherheitsnadel als sichtbare Brücke wieder einzeichnen (weiß) über der Windel -->
        <g fill="none" stroke="#fff" stroke-linecap="round">
          <line x1="190" y1="206" x2="322" y2="206" stroke-width="15"/>
          <path d="M190 206 C 172 206 172 228 190 228 L 216 228" stroke-width="15"/>
        </g>
      </g>
    </mask>
  </defs>

  <!-- Eine Farbe via currentColor (Standard: ink #2A2A40). Themed-Icon-System tint überschreibt. -->
  <rect x="0" y="0" width="1024" height="1024" fill="currentColor" color="#2A2A40" mask="url(#knockout)"/>
</svg>
